<svg width="108" height="102" viewBox="0 0 108 102" fill="none" xmlns="http://www.w3.org/2000/svg">
<g filter="url(#filter0_d_279_95)">
<path d="M58.7115 27.8366C64.365 25.8141 70.9407 26.3333 71.9228 28.9506C73.8519 34.0897 64.2882 35.0487 62.3335 37.3078C60.3778 39.567 59.2332 40.909 57.2154 43.0698L50.375 50.5127C49.7353 51.425 49.9813 52.6849 51.2618 52.6849C55.3455 52.6849 60.0343 53.0826 63.613 53.2977C77.1887 55.3115 79.6 58.1243 79.6 63.2341C79.6 68.3441 67.6356 72.6001 54.5088 72.6001C41.381 72.6001 29.2563 67.7958 27.6352 62.2489C27.4849 61.5536 27.7897 59.1221 29.0595 57.6643C32.4059 53.823 36.9825 52.9587 40.0336 49.9336L52.5463 38.4047C52.6152 38.2842 52.5522 38.1326 52.4203 38.0851C52.3779 38.0702 52.3347 38.0675 52.2914 38.0772L36.5889 42.5872C35.4806 42.8379 34.8556 41.3912 35.8114 40.7907L50.1861 34.0897C50.3524 33.9853 50.4814 33.8351 50.5719 33.6635C51.6988 31.5289 54.746 29.2551 58.7115 27.8366Z" fill="url(#paint0_linear_279_95)"/>
</g>
<defs>
<filter id="filter0_d_279_95" x="5.72205e-06" y="9.72748e-05" width="107.2" height="101.2" filterUnits="userSpaceOnUse" color-interpolation-filters="sRGB">
<feFlood flood-opacity="0" result="BackgroundImageFix"/>
<feColorMatrix in="SourceAlpha" type="matrix" values="0 0 0 0 0 0 0 0 0 0 0 0 0 0 0 0 0 0 127 0" result="hardAlpha"/>
<feOffset dy="1"/>
<feGaussianBlur stdDeviation="13.8"/>
<feComposite in2="hardAlpha" operator="out"/>
<feColorMatrix type="matrix" values="0 0 0 0 0.560784 0 0 0 0 0.396078 0 0 0 0 0.431373 0 0 0 0.49 0"/>
<feBlend mode="normal" in2="BackgroundImageFix" result="effect1_dropShadow_279_95"/>
<feBlend mode="normal" in="SourceGraphic" in2="effect1_dropShadow_279_95" result="shape"/>
</filter>
<linearGradient id="paint0_linear_279_95" x1="79.6" y1="49.6001" x2="27.6" y2="49.6001" gradientUnits="userSpaceOnUse">
<stop stop-color="#6F647F"/>
<stop offset="1" stop-color="#A86762"/>
</linearGradient>
</defs>
</svg>
